<svg xmlns="http://www.w3.org/2000/svg" viewBox="0 0 16 16" width="32" height="32">
  <!-- Background -->
  <rect width="16" height="16" fill="#fff" />

  <!-- Curly Hair (Inspired by the image) -->
  <rect x="2" y="2" width="2" height="2" fill="#000" />
  <rect x="4" y="1" width="2" height="2" fill="#000" />
  <rect x="6" y="0" width="2" height="2" fill="#000" />
  <rect x="8" y="0" width="2" height="2" fill="#000" />
  <rect x="10" y="1" width="2" height="2" fill="#000" />
  <rect x="12" y="2" width="2" height="2" fill="#000" />
  <rect x="1" y="4" width="2" height="2" fill="#000" />
  <rect x="13" y="4" width="2" height="2" fill="#000" />
  <rect x="2" y="6" width="2" height="2" fill="#000" />
  <rect x="12" y="6" width="2" height="2" fill="#000" />

  <!-- Face -->
  <rect x="4" y="5" width="8" height="6" fill="#fff" />

  <!-- Glasses -->
  <rect x="4" y="7" width="3" height="2" fill="#000" />
  <rect x="9" y="7" width="3" height="2" fill="#000" />
  <rect x="7" y="8" width="2" height="1" fill="#000" />

  <!-- Mouth -->
  <rect x="7" y="10" width="2" height="1" fill="#000" />
</svg>
